<?xml version="1.0" standalone="no"?>
<!DOCTYPE svg PUBLIC "-//W3C//DTD SVG 20010904//EN"
 "http://www.w3.org/TR/2001/REC-SVG-20010904/DTD/svg10.dtd">
<svg version="1.0" xmlns="http://www.w3.org/2000/svg"
 width="400.000000pt" height="400.000000pt" viewBox="0 0 400.000000 400.000000"
 preserveAspectRatio="xMidYMid meet">
<metadata>
Created by potrace 1.11, written by Peter Selinger 2001-2013
</metadata>
<g transform="translate(0.000000,400.000000) scale(0.100000,-0.100000)"
fill="#000000" stroke="none">
<path d="M1795 3919 c-143 -15 -494 -102 -563 -139 l-37 -20 80 5 c93 6 90 4
-25 -20 -208 -43 -416 -136 -580 -258 -68 -50 -179 -163 -235 -238 -22 -31
-57 -76 -77 -100 -19 -24 -56 -91 -82 -149 -26 -58 -58 -127 -71 -154 -14 -27
-22 -52 -20 -55 12 -11 88 79 126 147 49 89 126 209 139 217 26 16 9 -23 -97
-215 -75 -137 -131 -328 -163 -555 -6 -44 -13 -88 -15 -97 -6 -32 12 -19 27
20 14 36 14 35 26 -101 12 -127 35 -286 48 -330 9 -30 18 -10 26 56 30 253 34
262 62 151 18 -73 88 -254 109 -284 11 -16 13 -10 14 52 1 39 6 75 13 82 9 8
10 -23 6 -134 -3 -80 -5 -146 -6 -147 0 -2 -5 -3 -11 -3 -11 0 -79 141 -125
259 l-29 74 -8 -34 c-4 -19 -9 -88 -11 -154 -1 -66 -7 -120 -12 -120 -10 0
-65 162 -90 265 -9 36 -18 72 -22 80 -3 8 -16 -86 -28 -210 -20 -194 -22 -266
-19 -520 4 -274 6 -307 34 -460 16 -91 37 -185 45 -210 15 -44 15 -41 11 95
-3 77 -7 156 -9 175 -6 45 4 120 15 120 5 0 9 -10 9 -22 0 -25 24 -143 39
-195 18 -62 95 -247 136 -327 44 -86 172 -276 187 -276 11 0 10 14 -1 25 -5 6
-17 48 -25 95 -9 47 -24 116 -34 154 -21 76 -19 124 4 105 8 -6 14 -21 14 -32
0 -11 20 -61 43 -111 34 -71 57 -104 105 -149 33 -31 66 -57 73 -57 7 0 20 -7
30 -16 16 -14 17 -9 24 82 4 54 5 133 2 176 -6 78 -2 89 22 66 10 -11 11 -8 7
12 -19 82 -26 164 -16 174 19 19 35 -26 55 -146 3 -21 10 -38 15 -38 17 0 23
53 12 97 -15 53 -15 63 -1 63 11 0 36 -53 84 -178 16 -40 33 -76 38 -79 5 -3
8 22 6 62 -5 81 9 93 37 33 43 -92 97 -188 104 -188 11 0 37 59 44 103 4 20
20 70 36 109 16 40 28 73 27 73 -1 1 -64 14 -139 28 -159 31 -295 72 -323 97
-11 9 -47 35 -80 57 -89 60 -150 130 -169 194 -19 63 -21 209 -4 256 10 28 9
41 -6 81 -10 26 -22 67 -27 92 -15 82 -21 303 -11 368 10 58 9 66 -16 120 -26
58 -41 164 -27 199 6 16 7 16 15 2 5 -9 14 -37 20 -63 6 -27 24 -78 41 -114
33 -71 135 -206 148 -197 5 3 12 17 16 32 3 16 17 44 30 63 12 19 30 71 39
115 94 478 166 756 203 787 15 12 16 7 10 -52 -31 -301 -32 -404 -3 -535 16
-70 24 -58 28 39 3 80 22 100 33 34 7 -49 46 -176 77 -258 23 -58 62 -119 139
-212 51 -62 59 -60 59 11 0 21 3 66 6 100 6 50 9 59 20 50 8 -6 14 -15 14 -20
0 -5 18 -35 39 -67 22 -31 45 -69 52 -84 7 -16 15 -28 19 -28 4 0 17 27 29 59
21 57 91 174 113 187 19 12 27 -12 29 -94 1 -45 5 -85 9 -87 12 -8 117 131
150 198 33 68 90 254 90 296 0 15 4 31 9 36 23 24 44 185 46 343 1 179 15 228
34 126 24 -129 115 -499 124 -505 5 -4 7 -11 3 -17 -3 -6 -2 -13 3 -17 6 -3
11 27 13 77 2 66 6 83 18 83 11 0 16 -17 21 -70 4 -51 18 -103 53 -190 46
-115 144 -310 152 -303 2 2 15 48 30 102 28 108 61 192 71 183 3 -4 7 -19 9
-34 1 -15 10 -43 19 -62 8 -20 24 -79 34 -131 l18 -95 41 86 c73 152 123 282
137 356 22 115 28 267 16 413 -11 127 -18 166 -56 284 -8 27 -13 51 -10 54 6
7 52 -100 75 -178 30 -99 52 -328 40 -410 -5 -36 -10 -88 -10 -115 0 -54 -30
-173 -59 -239 -13 -28 -20 -73 -23 -138 -4 -98 -4 -98 20 -98 22 0 24 -3 19
-32 -3 -18 -8 -43 -12 -55 -5 -16 -2 -23 14 -28 25 -8 27 -35 5 -77 l-16 -31
37 22 c42 24 57 21 31 -7 -16 -18 -14 -19 53 -25 38 -3 79 -12 90 -19 40 -25
71 -211 56 -335 -6 -56 -9 -61 -85 -136 -94 -93 -165 -130 -245 -129 -48 0
-58 -3 -104 -43 -28 -24 -61 -47 -73 -51 -13 -4 -45 -22 -71 -40 -27 -19 -55
-34 -63 -34 -8 0 -14 -4 -14 -9 0 -10 -78 -45 -137 -60 -24 -7 -43 -17 -43
-24 0 -7 18 -31 41 -52 55 -55 128 -164 148 -222 25 -74 35 -68 42 25 4 45 9
85 12 89 17 16 28 -67 29 -218 0 -96 4 -166 9 -163 5 3 32 38 59 77 27 40 68
98 90 130 23 32 66 105 96 162 65 122 74 132 99 105 33 -36 6 -191 -54 -308
-23 -46 -18 -50 35 -27 60 25 109 71 206 192 121 151 140 179 163 235 11 25
24 44 28 41 5 -3 6 -33 3 -67 -4 -33 -9 -88 -11 -122 -5 -71 -31 -197 -45
-225 -6 -10 -7 -19 -2 -19 16 0 49 44 168 223 212 317 205 304 244 455 12 45
26 82 30 82 19 0 27 -427 9 -559 -6 -45 -9 -84 -6 -87 3 -3 12 7 20 23 8 15
36 66 62 113 68 120 112 221 140 316 31 106 46 292 33 415 -10 104 -5 139 18
139 14 0 15 7 10 38 -14 80 -29 260 -27 316 2 61 -9 137 -65 460 -42 238 -51
276 -109 439 -80 226 -91 250 -248 507 -98 160 -164 241 -270 333 -122 106
-308 197 -522 256 -315 87 -655 131 -850 110z m611 -287 c-4 -3 -14 2 -24 12
-16 18 -16 18 6 6 13 -6 21 -14 18 -18z m82 -34 c68 -37 89 -53 190 -140 190
-164 311 -341 367 -534 34 -116 17 -134 -20 -22 -39 117 -60 160 -132 269 -99
152 -275 328 -405 403 -44 25 -79 56 -64 56 4 0 33 -14 64 -32z"/>
</g>
</svg>
