<svg version="1.0" xmlns="http://www.w3.org/2000/svg" width="533.333" height="533.333" viewBox="0 0 400 400"><path d="M179.5 8.1c-14.3 1.5-49.4 10.2-56.3 13.9l-3.7 2 8-.5c9.3-.6 9-.4-2.5 2-20.8 4.3-41.6 13.6-58 25.8-6.8 5-17.9 16.3-23.5 23.8-2.2 3.1-5.7 7.6-7.7 10-1.9 2.4-5.6 9.1-8.2 14.9-2.6 5.8-5.8 12.7-7.1 15.4-1.4 2.7-2.2 5.2-2 5.5 1.2 1.1 8.8-7.9 12.6-14.7C36 97.3 43.7 85.3 45 84.5c2.6-1.6.9 2.3-9.7 21.5-7.5 13.7-13.1 32.8-16.3 55.5-.6 4.4-1.3 8.8-1.5 9.7-.6 3.2 1.2 1.9 2.7-2 1.4-3.6 1.4-3.5 2.6 10.1 1.2 12.7 3.5 28.6 4.8 33 .9 3 1.8 1 2.6-5.6 3-25.3 3.4-26.2 6.2-15.1 1.8 7.3 8.8 25.4 10.9 28.4 1.1 1.6 1.3 1 1.4-5.2.1-3.9.6-7.5 1.3-8.2.9-.8 1 2.3.6 13.4-.3 8-.5 14.6-.6 14.7 0 .2-.5.3-1.1.3-1.1 0-7.9-14.1-12.5-25.9l-2.9-7.4-.8 3.4c-.4 1.9-.9 8.8-1.1 15.4-.1 6.6-.7 12-1.2 12-1 0-6.5-16.2-9-26.5-.9-3.6-1.8-7.2-2.2-8-.3-.8-1.6 8.6-2.8 21-2 19.4-2.2 26.6-1.9 52 .4 27.4.6 30.7 3.4 46 1.6 9.1 3.7 18.5 4.5 21 1.5 4.4 1.5 4.1 1.1-9.5-.3-7.7-.7-15.6-.9-17.5-.6-4.5.4-12 1.5-12 .5 0 .9 1 .9 2.2 0 2.5 2.4 14.3 3.9 19.5 1.8 6.2 9.5 24.7 13.6 32.7C46.9 362 59.7 381 61.2 381c1.1 0 1-1.4-.1-2.5-.5-.6-1.7-4.8-2.5-9.5-.9-4.7-2.4-11.6-3.4-15.4-2.1-7.6-1.9-12.4.4-10.5.8.6 1.4 2.1 1.4 3.2s2 6.1 4.3 11.1c3.4 7.1 5.7 10.4 10.5 14.9 3.3 3.1 6.6 5.7 7.3 5.7.7 0 2 .7 3 1.6 1.6 1.4 1.7.9 2.4-8.2.4-5.4.5-13.3.2-17.6-.6-7.8-.2-8.9 2.2-6.6 1 1.1 1.1.8.7-1.2-1.9-8.2-2.6-16.4-1.6-17.4 1.9-1.9 3.5 2.6 5.5 14.6.3 2.1 1 3.8 1.5 3.8 1.7 0 2.3-5.3 1.2-9.7-1.5-5.3-1.5-6.3-.1-6.3 1.1 0 3.6 5.3 8.4 17.8 1.6 4 3.3 7.6 3.8 7.9.5.3.8-2.2.6-6.2-.5-8.1.9-9.3 3.7-3.3 4.3 9.2 9.7 18.8 10.4 18.8 1.1 0 3.7-5.9 4.4-10.3.4-2 2-7 3.6-10.9 1.6-4 2.8-7.3 2.7-7.3-.1-.1-6.4-1.4-13.9-2.8-15.9-3.1-29.5-7.2-32.3-9.7-1.1-.9-4.7-3.5-8-5.7-8.9-6-15-13-16.9-19.4-1.9-6.3-2.1-20.9-.4-25.6 1-2.8.9-4.1-.6-8.1-1-2.6-2.2-6.7-2.7-9.2-1.5-8.2-2.1-30.3-1.1-36.8 1-5.8.9-6.6-1.6-12-2.6-5.8-4.1-16.4-2.7-19.9.6-1.6.7-1.6 1.5-.2.5.9 1.4 3.7 2 6.3.6 2.7 2.4 7.8 4.1 11.4 3.3 7.1 13.5 20.6 14.8 19.7.5-.3 1.2-1.7 1.6-3.2.3-1.6 1.7-4.4 3-6.3 1.2-1.9 3-7.1 3.9-11.5 9.4-47.8 16.6-75.6 20.3-78.7 1.5-1.2 1.6-.7 1 5.2-3.1 30.1-3.2 40.4-.3 53.5 1.6 7 2.4 5.8 2.8-3.9.3-8 2.2-10 3.3-3.4.7 4.9 4.6 17.6 7.7 25.8 2.3 5.8 6.2 11.9 13.9 21.2 5.1 6.2 5.9 6 5.9-1.1 0-2.1.3-6.6.6-10 .6-5 .9-5.9 2-5 .8.6 1.4 1.5 1.4 2s1.8 3.5 3.9 6.7c2.2 3.1 4.5 6.9 5.2 8.4.7 1.6 1.5 2.8 1.9 2.8.4 0 1.7-2.7 2.9-5.9 2.1-5.7 9.1-17.4 11.3-18.7 1.9-1.2 2.7 1.2 2.9 9.4.1 4.5.5 8.5.9 8.7 1.2.8 11.7-13.1 15-19.8 3.3-6.8 9-25.4 9-29.6 0-1.5.4-3.1.9-3.6 2.3-2.4 4.4-18.5 4.6-34.3.1-17.9 1.5-22.8 3.4-12.6 2.4 12.9 11.5 49.9 12.4 50.5.5.4.7 1.1.3 1.7-.3.6-.2 1.3.3 1.7.6.3 1.1-2.7 1.3-7.7.2-6.6.6-8.3 1.8-8.3 1.1 0 1.6 1.7 2.1 7 .4 5.1 1.8 10.3 5.3 19 4.6 11.5 14.4 31 15.2 30.3.2-.2 1.5-4.8 3-10.2 2.8-10.8 6.1-19.2 7.1-18.3.3.4.7 1.9.9 3.4.1 1.5 1 4.3 1.9 6.2.8 2 2.4 7.9 3.4 13.1l1.8 9.5 4.1-8.6c7.3-15.2 12.3-28.2 13.7-35.6 2.2-11.5 2.8-26.7 1.6-41.3-1.1-12.7-1.8-16.6-5.6-28.4-.8-2.7-1.3-5.1-1-5.4.6-.7 5.2 10 7.5 17.8 3 9.9 5.2 32.8 4 41-.5 3.6-1 8.8-1 11.5 0 5.4-3 17.3-5.9 23.9-1.3 2.8-2 7.3-2.3 13.8-.4 9.8-.4 9.8 2 9.8 2.2 0 2.4.3 1.9 3.2-.3 1.8-.8 4.3-1.2 5.5-.5 1.6-.2 2.3 1.4 2.8 2.5.8 2.7 3.5.5 7.7l-1.6 3.1 3.7-2.2c4.2-2.4 5.7-2.1 3.1.7-1.6 1.8-1.4 1.9 5.3 2.5 3.8.3 7.9 1.2 9 1.9 4 2.5 7.1 21.1 5.6 33.5-.6 5.6-.9 6.1-8.5 13.6-9.4 9.3-16.5 13-24.5 12.9-4.8 0-5.8.3-10.4 4.3-2.8 2.4-6.1 4.7-7.3 5.1-1.3.4-4.5 2.2-7.1 4-2.7 1.9-5.5 3.4-6.3 3.4-.8 0-1.4.4-1.4.9 0 1-7.8 4.5-13.7 6-2.4.7-4.3 1.7-4.3 2.4s1.8 3.1 4.1 5.2c5.5 5.5 12.8 16.4 14.8 22.2 2.5 7.4 3.5 6.8 4.2-2.5.4-4.5.9-8.5 1.2-8.9 1.7-1.6 2.8 6.7 2.9 21.8 0 9.6.4 16.6.9 16.3.5-.3 3.2-3.8 5.9-7.7 2.7-4 6.8-9.8 9-13 2.3-3.2 6.6-10.5 9.6-16.2 6.5-12.2 7.4-13.2 9.9-10.5 3.3 3.6.6 19.1-5.4 30.8-2.3 4.6-1.8 5 3.5 2.7 6-2.5 10.9-7.1 20.6-19.2 12.1-15.1 14-17.9 16.3-23.5 1.1-2.5 2.4-4.4 2.8-4.1.5.3.6 3.3.3 6.7-.4 3.3-.9 8.8-1.1 12.2-.5 7.1-3.1 19.7-4.5 22.5-.6 1-.7 1.9-.2 1.9 1.6 0 4.9-4.4 16.8-22.3 21.2-31.7 20.5-30.4 24.4-45.5 1.2-4.5 2.6-8.2 3-8.2 1.9 0 2.7 42.7.9 55.9-.6 4.5-.9 8.4-.6 8.7.3.3 1.2-.7 2-2.3.8-1.5 3.6-6.6 6.2-11.3 6.8-12 11.2-22.1 14-31.6 3.1-10.6 4.6-29.2 3.3-41.5-1-10.4-.5-13.9 1.8-13.9 1.4 0 1.5-.7 1-3.8-1.4-8-2.9-26-2.7-31.6.2-6.1-.9-13.7-6.5-46-4.2-23.8-5.1-27.6-10.9-43.9-8-22.6-9.1-25-24.8-50.7-9.8-16-16.4-24.1-27-33.3-12.2-10.6-30.8-19.7-52.2-25.6-31.5-8.7-65.5-13.1-85-11zm61.1 28.7c-.4.3-1.4-.2-2.4-1.2-1.6-1.8-1.6-1.8.6-.6 1.3.6 2.1 1.4 1.8 1.8zm8.2 3.4c6.8 3.7 8.9 5.3 19 14 19 16.4 31.1 34.1 36.7 53.4 3.4 11.6 1.7 13.4-2 2.2-3.9-11.7-6-16-13.2-26.9-9.9-15.2-27.5-32.8-40.5-40.3-4.4-2.5-7.9-5.6-6.4-5.6.4 0 3.3 1.4 6.4 3.2z"/></svg>